<svg width="22" height="28" viewBox="0 0 22 28" fill="none" xmlns="http://www.w3.org/2000/svg">
<path d="M0 17.0907C0 15.8086 0.349682 14.337 1.04905 12.676C1.74841 11.015 2.65176 9.39772 3.75909 7.85329C6.03203 4.85185 8.01356 2.57891 9.67456 1.04905L10.7673 0C11.1316 0.378823 11.5395 0.728505 11.9766 1.04905C12.574 1.66099 13.4919 2.66633 14.7158 4.0942C15.9397 5.52207 17.0033 6.78967 17.8775 7.95528C18.912 9.42686 19.8008 11.015 20.5147 12.6906C21.2287 14.3661 21.5929 15.8377 21.5929 17.1053C21.5929 18.5623 21.3161 19.9465 20.7478 21.2724C20.1796 22.5982 19.422 23.7493 18.4603 24.7109C17.4987 25.6725 16.3477 26.4448 15.0072 27.013C13.6668 27.5812 12.2535 27.8726 10.7673 27.8726C9.3103 27.8726 7.92614 27.5958 6.60026 27.0421C5.27438 26.4885 4.12334 25.7454 3.16171 24.7838C2.20009 23.8367 1.42787 22.6857 0.859636 21.3598C0.291402 20.0339 0 18.606 0 17.0907ZM3.29285 12.8217C3.29285 14.031 3.54054 14.9926 4.05049 15.7212C4.56045 16.4351 5.33266 16.7993 6.36714 16.7993C7.41619 16.7993 8.1884 16.4351 8.71293 15.7212C9.22288 15.0072 9.48514 14.0456 9.49971 12.8217C9.48514 11.5978 9.22288 10.6362 8.71293 9.90768C8.20297 9.19374 7.41619 8.82949 6.36714 8.82949C5.33266 8.82949 4.56045 9.19374 4.05049 9.90768C3.54054 10.6362 3.29285 11.5978 3.29285 12.8217ZM5.58035 12.8217C5.58035 12.6031 5.58035 12.4283 5.58035 12.3117C5.58035 12.1952 5.59492 12.0349 5.60949 11.8309C5.62406 11.627 5.63863 11.4667 5.68234 11.3647C5.72606 11.2627 5.7552 11.1316 5.81348 11.015C5.87176 10.8984 5.94461 10.7965 6.03203 10.7527C6.13402 10.6945 6.23601 10.6653 6.36714 10.6653C6.57112 10.6653 6.73139 10.7236 6.84795 10.8402C6.96452 10.9567 7.05194 11.1461 7.09565 11.3938C7.13936 11.6561 7.1685 11.8601 7.18307 12.0495C7.19764 12.2389 7.19764 12.4866 7.19764 12.8071C7.19764 13.1422 7.19764 13.3899 7.18307 13.5648C7.1685 13.7396 7.13936 13.9582 7.09565 14.2204C7.05194 14.4681 6.96452 14.6575 6.84795 14.7741C6.73139 14.8907 6.57112 14.9489 6.36714 14.9489C6.23601 14.9489 6.13402 14.9198 6.03203 14.8615C5.93004 14.8032 5.85719 14.7158 5.81348 14.5993C5.7552 14.4827 5.71149 14.3516 5.68234 14.2496C5.6532 14.133 5.62406 13.9727 5.60949 13.7833C5.59492 13.5793 5.58035 13.4191 5.58035 13.3171C5.58035 13.2151 5.58035 13.0403 5.58035 12.8217ZM6.43999 24.1135H8.36325L15.6337 8.46524H13.6668L6.43999 24.1135ZM12.7051 19.7571C12.7197 20.981 12.9965 21.9426 13.5065 22.6711C14.0165 23.385 14.8032 23.7493 15.8377 23.7493C16.8868 23.7493 17.659 23.385 18.1689 22.6711C18.6789 21.9572 18.9266 20.981 18.9411 19.7571C18.9266 18.5332 18.6789 17.5716 18.1689 16.8576C17.659 16.1437 16.8868 15.7794 15.8377 15.7794C14.8032 15.7794 14.0165 16.1437 13.5065 16.8576C12.982 17.5716 12.7197 18.5332 12.7051 19.7571ZM14.9926 19.7571C14.9926 19.422 14.9926 19.1743 15.0072 18.9994C15.0218 18.8246 15.0509 18.606 15.0946 18.3438C15.1383 18.0815 15.2258 17.9067 15.3423 17.7901C15.4589 17.6735 15.6192 17.6153 15.8231 17.6153C15.9543 17.6153 16.0708 17.6444 16.1728 17.7027C16.2748 17.761 16.3477 17.8484 16.4059 17.9795C16.4642 18.1107 16.5079 18.2272 16.5517 18.3292C16.5954 18.4312 16.6099 18.5915 16.6245 18.7954L16.6391 19.2617V19.7571V20.267L16.6245 20.7333L16.5517 21.1995L16.4059 21.5492L16.1728 21.826L15.8231 21.9135C15.6192 21.9135 15.4589 21.8552 15.3423 21.7386C15.2258 21.622 15.1383 21.4326 15.0946 21.1849C15.0509 20.9227 15.0218 20.7041 15.0072 20.5293C14.9926 20.3544 14.9926 20.0922 14.9926 19.7571Z" fill="white"/>
</svg>
