<svg width="22" height="26" viewBox="0 0 22 26" fill="none" xmlns="http://www.w3.org/2000/svg">
<path d="M0 10.7891C0 9.32991 0.280045 7.92968 0.854873 6.58842C1.4297 5.24715 2.19614 4.11223 3.16893 3.15419C4.14171 2.19614 5.29137 1.4297 6.6179 0.854873C7.94442 0.280044 9.34464 0 10.8038 0C12.263 0 13.6632 0.280044 15.0045 0.854873C16.331 1.4297 17.4807 2.19614 18.4387 3.15419C19.3968 4.11223 20.1632 5.26189 20.738 6.58842C21.3129 7.91494 21.5929 9.31517 21.5929 10.7891C21.5929 13.1768 20.8854 15.2993 19.4705 17.1859C18.0555 19.0578 16.2278 20.3401 14.0022 21.0328V25.882H7.75281V21.0918C5.48298 20.4285 3.6111 19.1462 2.16666 17.2448C0.72222 15.3435 0 13.1916 0 10.7891ZM2.37301 10.7891C2.37301 13.0737 3.1984 15.034 4.86393 16.67C6.49998 18.3208 8.47503 19.1462 10.7891 19.1462C12.3072 19.1462 13.7222 18.7777 15.0045 18.026C16.3015 17.2743 17.3185 16.2573 18.085 14.975C18.8367 13.6927 19.2199 12.2925 19.2199 10.7743C19.2199 9.63943 18.9988 8.56347 18.5566 7.51699C18.1145 6.4705 17.5102 5.58615 16.7585 4.83445C16.0068 4.08275 15.1077 3.47845 14.0612 3.03627C13.0147 2.5941 11.9387 2.37301 10.8038 2.37301C9.66891 2.37301 8.59295 2.5941 7.54646 3.03627C6.49998 3.47845 5.61563 4.08275 4.86393 4.83445C4.11223 5.58615 3.50793 6.48524 3.06575 7.51699C2.5941 8.57821 2.37301 9.65417 2.37301 10.7891ZM3.22788 11.3197V10.2585H6.42629V11.3197H3.22788ZM4.83445 6.10202L5.60089 5.33559L7.84125 7.57594L7.07481 8.35712L4.83445 6.10202ZM8.56347 13.3684C8.56347 12.7494 8.78455 12.2188 9.21199 11.7619C9.63943 11.305 10.17 11.0691 10.7743 11.0544L14.7981 4.4365L15.7709 4.95237L12.7936 12.0714C13.0589 12.4399 13.1768 12.8673 13.1768 13.3684C13.1768 14.017 12.9557 14.5623 12.4988 15.0045C12.0419 15.4467 11.4966 15.6678 10.848 15.6678C10.2143 15.6678 9.66891 15.4467 9.22673 15.0045C8.78455 14.5623 8.56347 14.017 8.56347 13.3684ZM10.4943 6.48524V3.30158H11.5113V6.49998H10.4943V6.48524ZM14.8276 11.305V10.2143H18.026V11.305H14.8276Z" fill="white"/>
</svg>
